<?xml version="1.0" standalone="no"?>
<!DOCTYPE svg PUBLIC "-//W3C//DTD SVG 20010904//EN"
 "http://www.w3.org/TR/2001/REC-SVG-20010904/DTD/svg10.dtd">
<svg version="1.0" xmlns="http://www.w3.org/2000/svg"
 width="1080.000000pt" height="1080.000000pt" viewBox="0 0 1080.000000 1080.000000"
 preserveAspectRatio="xMidYMid meet">

<g transform="translate(0.000000,1080.000000) scale(0.100000,-0.100000)"
fill="#000000" stroke="none">
<path d="M2655 10732 c-571 -351 -1056 -807 -1419 -1332 -651 -940 -917 -2032
-765 -3135 129 -939 566 -1829 1234 -2513 240 -246 467 -436 735 -615 58 -38
109 -74 115 -79 6 -5 -436 -454 -1151 -1171 -1302 -1303 -1208 -1198 -1208
-1352 0 -103 34 -183 105 -250 74 -69 126 -89 234 -90 159 0 54 -94 1362 1209
l1162 1157 72 -108 c351 -526 763 -936 1294 -1288 614 -407 1331 -658 2068
-725 241 -21 655 -12 926 21 459 56 1003 223 1426 439 472 241 818 492 1190
865 276 275 471 520 676 847 l89 143 0 208 0 208 -86 137 c-466 737 -1084
1308 -1833 1690 -176 90 -426 199 -554 241 l-68 23 193 97 c396 199 703 410
983 672 760 714 1214 1662 1316 2749 16 173 13 578 -6 775 -31 329 -116 749
-175 865 -31 62 -87 118 -150 150 -92 47 -475 128 -790 167 -205 25 -753 25
-960 0 -544 -66 -1018 -206 -1474 -434 -171 -86 -289 -155 -466 -274 -260
-175 -468 -352 -678 -579 -291 -313 -502 -620 -694 -1009 l-90 -183 -58 148
c-253 658 -602 1190 -1091 1669 -277 272 -540 477 -859 670 l-91 55 -202 0
-202 0 -110 -68z m462 -714 c452 -309 834 -702 1121 -1153 91 -144 251 -457
311 -610 117 -299 197 -607 235 -905 99 -772 -27 -1509 -376 -2193 -309 -605
-753 -1095 -1376 -1516 l-62 -42 -73 47 c-303 195 -624 475 -863 754 -469 545
-767 1191 -873 1890 -34 229 -44 396 -38 675 6 259 17 376 58 590 169 902 677
1726 1416 2302 135 105 352 253 371 253 7 0 75 -42 149 -92z m6473 32 c187
-24 365 -59 385 -74 16 -12 56 -216 82 -421 24 -187 24 -680 0 -864 -106 -802
-432 -1484 -981 -2049 -767 -789 -1880 -1169 -3006 -1026 -150 19 -371 60
-381 71 -11 12 -55 248 -76 408 -25 195 -25 701 0 890 54 401 158 751 326
1100 192 396 376 653 700 975 294 292 539 469 896 645 440 217 830 324 1335
365 168 14 543 3 720 -20z m-2520 -5240 c1195 -69 2264 -686 2959 -1709 l91
-134 -22 -36 c-182 -303 -567 -736 -868 -976 -134 -107 -340 -249 -484 -334
-453 -266 -1008 -442 -1556 -492 -169 -16 -526 -15 -685 0 -1150 116 -2171
739 -2830 1729 -41 61 -65 107 -62 116 9 23 122 190 191 281 175 233 485 556
692 721 633 506 1369 790 2155 833 211 12 228 12 419 1z"/>
</g>
</svg>
